#!OML:ASF H:\Terrain\Walking\May29\JustinRory\Justin.ASF
:FULLY-SPECIFIED
:DEGREES
1
root 9.15873 17.3536 -11.6736 0.875979 16.7268 -7.38733
lowerback 2.10869 -0.26411 3.82049
upperback 0.231279 -0.215145 3.60632
thorax -0.946309 -0.111089 1.56728
lowerneck -11.5334 -7.17246 -14.0393
upperneck 12.7993 -8.81788 10.1642
head 6.88528 -4.18351 4.69867
rclavicle -3.53837e-014 -2.54444e-014
rhumerus -29.2006 -9.71887 -82.3676
rradius 27.2217
rwrist -6.13524
rhand -14.083 23.5522
rfingers 7.12502
rthumb 12.0491 -6.0809
lclavicle -3.53837e-014 -2.54444e-014
lhumerus -32.763 7.82259 84.9845
lradius 31.2725
lwrist -8.43306
lhand 0.478878 37.435
lfingers 7.12502
lthumb 26.049 65.6691
rfemur -13.911 -0.938963 27.0733
rtibia 30.7012
rfoot -17.8389 -9.31397
rtoes -2.20905
lfemur -6.89813 1.72827 -15.0924
ltibia 32.0091
lfoot -25.1732 9.19018
ltoes -7.81866
2
root 9.16074 17.3614 -11.6625 0.903126 17.0355 -6.68426
lowerback 2.28295 -0.371483 3.18149
upperback 0.215003 -0.367299 3.33564
thorax -1.05839 -0.186927 1.65144
lowerneck -11.1177 -7.22566 -13.9774
upperneck 12.4357 -8.97365 10.402
head 6.72539 -4.24892 4.75867
rclavicle 1.31446e-014 -1.41137e-014
rhumerus -29.2815 -9.88883 -82.5256
rradius 27.195
rwrist -6.04579
rhand -15.0782 24.1628
rfingers 7.12502
rthumb 11.0893 -5.52424
lclavicle 1.31446e-014 -1.41137e-014
lhumerus -32.8204 8.00676 84.7147
lradius 31.2205
lwrist -8.68641
lhand 1.19384 38.5355
lfingers 7.12502
lthumb 26.7334 66.6669
rfemur -13.8898 -1.11461 26.2863
rtibia 31.0929
rfoot -18.1937 -9.23088
rtoes -0.822228
lfemur -6.43173 1.75316 -15.7971
ltibia 31.4669
lfoot -24.896 8.93169
ltoes -8.12426
3
root 9.15715 17.3538 -11.6585 0.911849 17.2294 -6.19688
lowerback 2.42984 -0.45058 2.66896
upperback 0.27338 -0.484341 3.15472
thorax -1.07733 -0.24406 1.75668
lowerneck -10.8514 -7.16174 -14.0276
upperneck 12.1406 -8.92541 10.6047
head 6.59133 -4.2207 4.84592
rclavicle -3.54582e-014 2.94201e-014
rhumerus -29.2503 -10.0141 -82.6845
rradius 27.3099
rwrist -6.04488
rhand -14.6622 23.9299
rfingers 7.12502
rthumb 11.4905 -5.73519
lclavicle -3.54582e-014 2.94201e-014
lhumerus -32.8384 8.05228 84.5352
lradius 31.4275
lwrist -8.70099
lhand 1.10455 38.2429
lfingers 7.12502
lthumb 26.6479 66.3873
rfemur -13.665 -1.33091 25.8123
rtibia 31.0341
rfoot -18.2159 -9.41157
rtoes -1.5704
lfemur -6.34487 1.82162 -16.2654
ltibia 31.6055
lfoot -24.994 8.7539
ltoes -8.64403
4
root 9.1527 17.3463 -11.6596 0.848566 17.0265 -6.55078
lowerback 2.4842 -0.37807 2.9111
upperback 0.261279 -0.375515 3.28141
thorax -1.12223 -0.190453 1.74849
lowerneck -12.0197 -7.02622 -13.4957
upperneck 13.1353 -8.60575 9.75646
head 7.00619 -4.07343 4.49045
rclavicle -2.5345e-014 3.37934e-015
rhumerus -29.2852 -9.81448 -82.7572
rradius 27.4595
rwrist -6.40601
rhand -15.0254 23.7404
rfingers 7.12502
rthumb 11.1403 -5.94387
lclavicle -2.5345e-014 3.37934e-015
lhumerus -32.812 8.28207 84.5109
lradius 31.5611
lwrist -9.10482
lhand 1.36774 37.8965
lfingers 7.12502
lthumb 26.8998 66.0024
rfemur -13.6538 -1.01967 26.2553
rtibia 30.9696
rfoot -18.0731 -9.72065
rtoes -2.54193
lfemur -6.45654 1.89078 -15.8747
ltibia 31.6833
lfoot -25.0201 8.8494
ltoes -8.28459
5
root 9.1491 17.3476 -11.6605 0.701232 16.7247 -7.44983
lowerback 2.47975 -0.279127 3.67741
upperback 0.231645 -0.215678 3.56938
thorax -1.1537 -0.112994 1.61132
lowerneck -12.5997 -6.8783 -13.2525
upperneck 13.4664 -8.33416 9.40823
head 7.15366 -3.94354 4.35573
rclavicle -9.79014e-015 -3.04141e-014
rhumerus -29.262 -9.54881 -82.8441
rradius 27.5856
rwrist -6.83717
rhand -16.2608 23.9223
rfingers 7.12502
rthumb 9.9486 -5.8226
lclavicle -9.79014e-015 -3.04141e-014
lhumerus -32.7901 8.60213 84.4901
lradius 31.6537
lwrist -9.59432
lhand 2.17381 38.4305
lfingers 7.12502
lthumb 27.6708 66.4151
rfemur -13.7318 -0.444625 27.2392
rtibia 30.8091
rfoot -17.8206 -9.92481
rtoes -2.44566
lfemur -6.70105 2.04872 -14.8978
ltibia 31.8955
lfoot -25.0679 9.01567
ltoes -8.48598
